# xmcd
#
# Track frame offsets: 
#        150
#        14300
#        28031
#        37881
#        54453
#        90728
#        104837
#        114622
#        130145
#        141785
#        154716
#        165314
#        175371
#        203028
#        217421
#        226798
#        243934
#        256783
#        268852
#        307748
#
# Disc length: 4315 seconds
#
# Revision: 0
# Processed by: cddbd v1.5.2PL0 Copyright (c) Steve Scherf et al.
# Submitted via: ExactAudioCopyFreeDBPlugin 1.0
#
DISCID=0e10d914
DTITLE=Georges Brassens - L'indispensable
DYEAR=1900
DGENRE=Chanson
TTITLE0=Chanson Pour L'auvergnat
TTITLE1=Les Bancs Publics
TTITLE2=La Chasse Aux Papillons
TTITLE3=Les Croquants
TTITLE4=Le Gorille
TTITLE5=Une Jolie Fleur
TTITLE6=J'ai Rendez-Vous Avec Vous
TTITLE7=Brave Margot
TTITLE8=Le Parapluie
TTITLE9=Les Sabots D'Hélène
TTITLE10=La Mauvaise Réputation
TTITLE11=Le Fossoyeur
TTITLE12=Je Me Suis Fait Tout Petit
TTITLE13=Auprès De Mon Arbre
TTITLE14=Il Suffit De Passer Le Pont
TTITLE15=Le Vieux Leon
TTITLE16=Le Vin
TTITLE17=Comme Une Soeur
TTITLE18=Bonhomme
TTITLE19=Le Cocu
EXTD=
EXTT0=
EXTT1=
EXTT2=
EXTT3=
EXTT4=
EXTT5=
EXTT6=
EXTT7=
EXTT8=
EXTT9=
EXTT10=
EXTT11=
EXTT12=
EXTT13=
EXTT14=
EXTT15=
EXTT16=
EXTT17=
EXTT18=
EXTT19=
PLAYORDER=
